<?xml version="1.0" standalone="no"?>
<!DOCTYPE svg PUBLIC "-//W3C//DTD SVG 20010904//EN"
 "http://www.w3.org/TR/2001/REC-SVG-20010904/DTD/svg10.dtd">
<svg version="1.0" xmlns="http://www.w3.org/2000/svg"
 width="260.000000pt" height="260.000000pt" viewBox="0 0 260.000000 260.000000"
 preserveAspectRatio="xMidYMid meet">
<metadata>
Created by potrace 1.11, written by Peter Selinger 2001-2013
</metadata>
<g transform="translate(0.000000,260.000000) scale(0.100000,-0.100000)"
fill="#000000" stroke="none">
<path d="M1873 2291 c-26 -12 -169 -225 -248 -371 -51 -92 -196 -381 -195
-387 0 -3 -15 -36 -81 -178 -96 -208 -119 -255 -129 -255 -15 0 -4 146 25 340
4 26 52 331 59 378 2 15 8 52 11 82 4 30 9 64 11 75 16 84 -112 150 -299 154
-81 2 -88 1 -109 -22 -35 -38 -174 -296 -351 -647 -87 -173 -163 -319 -168
-325 -7 -7 -9 0 -5 20 2 17 7 53 10 80 7 53 17 110 41 216 10 48 36 131 55
174 24 56 18 70 -54 113 -71 42 -174 70 -233 63 -32 -3 -103 -171 -132 -313
-60 -287 -76 -430 -76 -648 1 -123 4 -155 24 -215 44 -133 108 -194 231 -220
62 -12 136 -5 192 21 35 16 44 33 40 75 -3 21 22 159 43 240 48 189 127 390
257 660 59 122 85 166 97 164 20 -3 20 -34 -4 -275 -21 -214 -24 -683 -5 -775
29 -142 88 -200 213 -212 60 -5 149 11 184 35 7 4 14 33 17 63 9 99 17 152 41
254 71 303 185 601 329 856 42 76 51 86 77 87 16 0 29 -2 29 -5 0 -3 -18 -71
-40 -152 -35 -130 -59 -234 -75 -318 -2 -16 -9 -43 -14 -61 -10 -35 -8 -268 3
-317 20 -91 43 -137 99 -207 146 -181 525 -157 729 45 149 147 170 300 45 322
-22 4 -29 -2 -55 -48 -40 -71 -120 -141 -183 -162 -54 -18 -160 -16 -196 3
-96 52 -110 219 -42 510 23 100 50 194 109 377 53 167 117 387 124 428 3 18 8
46 12 62 12 64 8 94 -17 121 -35 38 -102 70 -189 91 -40 9 -187 12 -207 4z"/>
</g>
</svg>
