<?xml version="1.0" standalone="no"?>
<!DOCTYPE svg PUBLIC "-//W3C//DTD SVG 20010904//EN"
 "http://www.w3.org/TR/2001/REC-SVG-20010904/DTD/svg10.dtd">
<svg version="1.0" xmlns="http://www.w3.org/2000/svg"
 width="260.000000pt" height="260.000000pt" viewBox="0 0 260.000000 260.000000"
 preserveAspectRatio="xMidYMid meet">
<metadata>
Created by potrace 1.11, written by Peter Selinger 2001-2013
</metadata>
<g transform="translate(0.000000,260.000000) scale(0.100000,-0.100000)"
fill="#000000" stroke="none">
<path d="M1882 2312 c-16 -2 -45 -38 -106 -130 -138 -210 -222 -372 -414 -797
-130 -287 -134 -295 -144 -289 -5 3 -7 31 -4 62 3 32 8 86 11 122 3 36 7 76
10 90 2 14 7 45 10 70 3 25 8 57 11 73 2 15 6 39 8 55 3 15 8 47 11 72 3 25
13 86 21 135 38 221 37 259 -4 296 -47 42 -158 72 -266 73 l-89 0 -29 -34
c-15 -19 -28 -38 -28 -42 0 -4 -13 -29 -28 -55 -70 -120 -283 -538 -402 -790
-44 -93 -64 -117 -56 -65 3 15 8 52 11 82 11 97 45 242 80 345 l34 100 -25 26
c-40 42 -156 91 -229 97 l-63 5 -27 -47 c-37 -63 -80 -200 -109 -348 -24 -121
-28 -149 -41 -258 -4 -30 -9 -66 -11 -80 -10 -56 -12 -339 -3 -392 16 -101 48
-168 103 -223 75 -74 185 -101 287 -71 79 22 86 31 93 106 13 150 90 434 161
595 8 17 32 73 54 126 22 53 67 153 101 222 49 103 64 127 81 127 20 0 21 -3
15 -63 -4 -35 -9 -88 -12 -118 -2 -30 -6 -73 -9 -97 -17 -172 -26 -608 -13
-725 15 -149 66 -242 145 -268 92 -30 271 1 274 48 5 91 10 129 34 263 9 49
59 230 89 320 70 217 199 511 278 636 23 35 31 41 53 36 21 -4 25 -9 21 -26
-42 -156 -58 -214 -61 -229 -2 -10 -6 -26 -9 -35 -3 -9 -7 -28 -10 -42 -2 -14
-14 -68 -27 -120 -28 -123 -35 -315 -13 -415 31 -148 99 -243 212 -296 132
-63 338 -47 491 38 126 70 235 207 248 311 5 41 2 52 -18 75 -13 15 -38 30
-55 33 -29 6 -33 3 -62 -48 -36 -65 -114 -138 -170 -160 -44 -17 -151 -21
-192 -6 -40 14 -77 57 -90 108 -16 61 -14 196 6 298 27 141 54 246 118 452 58
186 98 317 101 330 1 3 13 55 27 115 38 159 40 180 14 216 -42 62 -159 106
-296 111 -41 2 -85 2 -98 0z"/>
</g>
</svg>
