<svg xmlns="http://www.w3.org/2000/svg" width="508.312" height="304.5" viewBox="0 0 508.312 304.5">
  <metadata><?xpacket begin="﻿" id="W5M0MpCehiHzreSzNTczkc9d"?>
<x:xmpmeta xmlns:x="adobe:ns:meta/" x:xmptk="Adobe XMP Core 5.6-c138 79.159824, 2016/09/14-01:09:01        ">
   <rdf:RDF xmlns:rdf="http://www.w3.org/1999/02/22-rdf-syntax-ns#">
      <rdf:Description rdf:about=""/>
   </rdf:RDF>
</x:xmpmeta>
                                                                                                    
                                                                                                    
                                                                                                    
                                                                                                    
                                                                                                    
                                                                                                    
                                                                                                    
                                                                                                    
                                                                                                    
                                                                                                    
                                                                                                    
                                                                                                    
                                                                                                    
                                                                                                    
                                                                                                    
                                                                                                    
                                                                                                    
                                                                                                    
                                                                                                    
                                                                                                    
                           
<?xpacket end="w"?></metadata>
<defs>
    <style>
      .cls-1 {
        fill-rule: evenodd;
      }
    </style>
  </defs>
  <path id="_02" data-name="02" class="cls-1" d="M402.748,5127.91c-85.258,0-132.575,54.24-132.575,151.62,0,97.8,47.317,152.04,132.575,152.04,84.405,0,131.723-54.24,131.723-152.04C534.471,5182.15,487.153,5127.91,402.748,5127.91Zm0,55.52c37.513,0,54.138,27.76,54.138,96.1s-16.625,96.52-54.138,96.52c-38.366,0-54.565-28.19-54.565-96.52S364.382,5183.43,402.748,5183.43Zm264.913-56.37c-42.629,0-83.552,16.66-121.065,44.84l28.561,54.67c27.282-23.49,57.122-38.01,81.421-38.01,21.314,0,33.676,10.25,33.676,27.33,0,13.67-11.936,33.74-28.561,51.25L555.121,5380.32v49.11H778.5v-60.21H652.741l60.533-64.49c32.4-33.32,56.27-67.06,56.27-99.51C769.544,5157.81,726.915,5127.06,667.661,5127.06Z" transform="translate(-270.188 -5127.06)"/>
</svg>
