<svg xmlns="http://www.w3.org/2000/svg" width="497.531" height="304.94" viewBox="0 0 497.531 304.94">
  <metadata><?xpacket begin="﻿" id="W5M0MpCehiHzreSzNTczkc9d"?>
<x:xmpmeta xmlns:x="adobe:ns:meta/" x:xmptk="Adobe XMP Core 5.6-c138 79.159824, 2016/09/14-01:09:01        ">
   <rdf:RDF xmlns:rdf="http://www.w3.org/1999/02/22-rdf-syntax-ns#">
      <rdf:Description rdf:about=""/>
   </rdf:RDF>
</x:xmpmeta>
                                                                                                    
                                                                                                    
                                                                                                    
                                                                                                    
                                                                                                    
                                                                                                    
                                                                                                    
                                                                                                    
                                                                                                    
                                                                                                    
                                                                                                    
                                                                                                    
                                                                                                    
                                                                                                    
                                                                                                    
                                                                                                    
                                                                                                    
                                                                                                    
                                                                                                    
                                                                                                    
                           
<?xpacket end="w"?></metadata>
<defs>
    <style>
      .cls-1 {
        fill-rule: evenodd;
      }
    </style>
  </defs>
  <path id="_03" data-name="03" class="cls-1" d="M402.748,4793.72c-85.258,0-132.575,54.23-132.575,151.61,0,97.8,47.317,152.04,132.575,152.04,84.405,0,131.723-54.24,131.723-152.04C534.471,4847.95,487.153,4793.72,402.748,4793.72Zm0,55.52c37.513,0,54.138,27.76,54.138,96.09s-16.625,96.52-54.138,96.52c-38.366,0-54.565-28.19-54.565-96.52S364.382,4849.24,402.748,4849.24Zm276.721,68.33,74.6-77.73V4796.7H557.125v58.09h108.7l-66.5,69.19v40.57h47.745c29.84,0,46.465,12.38,46.465,37.58,0,24.35-16.2,38.87-46.039,38.87-26.856,0-52.434-12.39-74.6-36.31l-30.693,57.66c27.282,21.78,70.337,36.3,111.261,36.3,69.485,0,114.245-40.14,114.245-97.37,0-46.13-30.693-74.74-74.174-81.58Z" transform="translate(-270.188 -4793.72)"/>
</svg>
