<svg xmlns="http://www.w3.org/2000/svg" width="513.468" height="304.5" viewBox="0 0 513.468 304.5">
  <metadata><?xpacket begin="﻿" id="W5M0MpCehiHzreSzNTczkc9d"?>
<x:xmpmeta xmlns:x="adobe:ns:meta/" x:xmptk="Adobe XMP Core 5.6-c138 79.159824, 2016/09/14-01:09:01        ">
   <rdf:RDF xmlns:rdf="http://www.w3.org/1999/02/22-rdf-syntax-ns#">
      <rdf:Description rdf:about=""/>
   </rdf:RDF>
</x:xmpmeta>
                                                                                                    
                                                                                                    
                                                                                                    
                                                                                                    
                                                                                                    
                                                                                                    
                                                                                                    
                                                                                                    
                                                                                                    
                                                                                                    
                                                                                                    
                                                                                                    
                                                                                                    
                                                                                                    
                                                                                                    
                                                                                                    
                                                                                                    
                                                                                                    
                                                                                                    
                                                                                                    
                           
<?xpacket end="w"?></metadata>
<defs>
    <style>
      .cls-1 {
        fill-rule: evenodd;
      }
    </style>
  </defs>
  <path id="_05" data-name="05" class="cls-1" d="M402.748,4793.72c-85.258,0-132.575,54.23-132.575,151.61,0,97.8,47.317,152.04,132.575,152.04,84.405,0,131.723-54.24,131.723-152.04C534.471,4847.95,487.153,4793.72,402.748,4793.72Zm0,55.52c37.513,0,54.138,27.76,54.138,96.09s-16.625,96.52-54.138,96.52c-38.366,0-54.565-28.19-54.565-96.52S364.382,4849.24,402.748,4849.24Zm367.691,7.26v-60.22H574.773v168.7c18.331-1.29,65.648-2.14,81-2.14,29.414,0,46.465,13.67,46.465,37.16,0,25.62-17.051,40.14-46.465,40.14-26.856,0-53.712-12.81-75.879-36.73l-30.267,57.66c31.119,22.21,75.879,37.16,115.1,37.16,72.042,0,118.934-40.58,118.934-103.36,0-53.38-44.76-90.11-112.966-90.11H643.832V4856.5H770.439Z" transform="translate(-270.188 -4793.72)"/>
</svg>
