<svg xmlns="http://www.w3.org/2000/svg" width="532.906" height="305.78" viewBox="0 0 532.906 305.78">
  <metadata><?xpacket begin="﻿" id="W5M0MpCehiHzreSzNTczkc9d"?>
<x:xmpmeta xmlns:x="adobe:ns:meta/" x:xmptk="Adobe XMP Core 5.6-c138 79.159824, 2016/09/14-01:09:01        ">
   <rdf:RDF xmlns:rdf="http://www.w3.org/1999/02/22-rdf-syntax-ns#">
      <rdf:Description rdf:about=""/>
   </rdf:RDF>
</x:xmpmeta>
                                                                                                    
                                                                                                    
                                                                                                    
                                                                                                    
                                                                                                    
                                                                                                    
                                                                                                    
                                                                                                    
                                                                                                    
                                                                                                    
                                                                                                    
                                                                                                    
                                                                                                    
                                                                                                    
                                                                                                    
                                                                                                    
                                                                                                    
                                                                                                    
                                                                                                    
                                                                                                    
                           
<?xpacket end="w"?></metadata>
<defs>
    <style>
      .cls-1 {
        fill-rule: evenodd;
      }
    </style>
  </defs>
  <path id="_06" data-name="06" class="cls-1" d="M402.748,4793.72c-85.258,0-132.575,54.23-132.575,151.61,0,97.8,47.317,152.04,132.575,152.04,84.405,0,131.723-54.24,131.723-152.04C534.471,4847.95,487.153,4793.72,402.748,4793.72Zm0,55.52c37.513,0,54.138,27.76,54.138,96.09s-16.625,96.52-54.138,96.52c-38.366,0-54.565-28.19-54.565-96.52S364.382,4849.24,402.748,4849.24Zm298.036-56.38c-83.979,0-138.117,61.93-138.117,157.17,0,91.82,48.6,148.62,128.739,148.62,67.353,0,111.687-40.14,111.687-103.35,0-58.08-37.513-96.52-96.341-96.52-33.251,0-57.123,11.96-71.19,32.03-0.853-49.12,22.167-79.44,69.911-79.44,23.02,0,45.613,6.83,62.664,19.22l28.988-52.96C771.974,4802.26,734.034,4792.86,700.784,4792.86ZM689.7,4954.3c27.283,0,43.055,14.95,43.055,40.57,0,27.76-17.051,43.14-44.334,43.14-30.692,0-44.76-19.65-44.76-41.86C643.661,4971.81,660.287,4954.3,689.7,4954.3Z" transform="translate(-270.188 -4792.88)"/>
</svg>
