<svg xmlns="http://www.w3.org/2000/svg" width="532.124" height="305.78" viewBox="0 0 532.124 305.78">
  <metadata><?xpacket begin="﻿" id="W5M0MpCehiHzreSzNTczkc9d"?>
<x:xmpmeta xmlns:x="adobe:ns:meta/" x:xmptk="Adobe XMP Core 5.6-c138 79.159824, 2016/09/14-01:09:01        ">
   <rdf:RDF xmlns:rdf="http://www.w3.org/1999/02/22-rdf-syntax-ns#">
      <rdf:Description rdf:about=""/>
   </rdf:RDF>
</x:xmpmeta>
                                                                                                    
                                                                                                    
                                                                                                    
                                                                                                    
                                                                                                    
                                                                                                    
                                                                                                    
                                                                                                    
                                                                                                    
                                                                                                    
                                                                                                    
                                                                                                    
                                                                                                    
                                                                                                    
                                                                                                    
                                                                                                    
                                                                                                    
                                                                                                    
                                                                                                    
                                                                                                    
                           
<?xpacket end="w"?></metadata>
<defs>
    <style>
      .cls-1 {
        fill-rule: evenodd;
      }
    </style>
  </defs>
  <path id="_08" data-name="08" class="cls-1" d="M402.748,4793.72c-85.258,0-132.575,54.23-132.575,151.61,0,97.8,47.317,152.04,132.575,152.04,84.405,0,131.723-54.24,131.723-152.04C534.471,4847.95,487.153,4793.72,402.748,4793.72Zm0,55.52c37.513,0,54.138,27.76,54.138,96.09s-16.625,96.52-54.138,96.52c-38.366,0-54.565-28.19-54.565-96.52S364.382,4849.24,402.748,4849.24Zm276.807-56.38c-64.8,0-106.572,30.32-106.572,78.16,0,26.05,16.2,49.97,41.35,64.06-34.53,13.67-56.7,42.71-56.7,76.87,0,52.96,47.745,86.7,122.345,86.7s122.345-34.16,122.345-87.98c0-33.31-20.462-61.92-53.286-75.59,23.445-12.81,37.513-35.88,37.513-61.93C786.553,4824.04,745.2,4792.86,679.555,4792.86Zm0.426,49.97c27.709,0,43.055,12.39,43.055,34.59,0,21.36-15.346,33.32-43.055,33.32s-43.055-11.96-43.055-33.32C636.926,4855.22,652.272,4842.83,679.981,4842.83Zm0,122.57c32.824,0,51.154,14.1,51.154,38.87,0,25.62-18.33,39.29-51.154,39.29s-50.728-14.1-50.728-39.29C629.253,4979.5,647.157,4965.4,679.981,4965.4Z" transform="translate(-270.188 -4792.88)"/>
</svg>
