<?xml version="1.0" encoding="utf-8"?>
<!-- Generator: Adobe Illustrator 21.0.0, SVG Export Plug-In . SVG Version: 6.00 Build 0)  -->
<svg version="1.1" id="Layer_1" xmlns="http://www.w3.org/2000/svg" xmlns:xlink="http://www.w3.org/1999/xlink" x="0px" y="0px"
	 viewBox="0 0 64 64" style="enable-background:new 0 0 64 64;" xml:space="preserve">
<style type="text/css">
	.st0{fill:#FFFFFF;}
</style>
<polygon class="st0" points="16,6.2 42,6.2 42,58 8,58 8,14.2 "/>
<polygon class="st0" points="48.1,12 48.1,45.8 50.1,51.8 52,45.5 52,12 "/>
<g>
	<g>
		<path d="M42,5.5H16c-0.1,0-0.1,0-0.2,0c-0.1,0-0.1,0.1-0.2,0.1l-8,8c0,0-0.1,0.1-0.1,0.2c0,0.1,0,0.1,0,0.2v44
			c0,0.3,0.2,0.5,0.5,0.5h34c0.3,0,0.5-0.2,0.5-0.5V6C42.5,5.7,42.3,5.5,42,5.5z M9.2,13.5l6.3-6.3v6.3H9.2z M41.5,57.5h-33v-43H16
			c0.3,0,0.5-0.2,0.5-0.5V6.5h25V57.5z"/>
		<path d="M22,12.5h14c0.3,0,0.5-0.2,0.5-0.5s-0.2-0.5-0.5-0.5H22c-0.3,0-0.5,0.2-0.5,0.5S21.7,12.5,22,12.5z"/>
		<path d="M36,17.5H22c-0.3,0-0.5,0.2-0.5,0.5s0.2,0.5,0.5,0.5h14c0.3,0,0.5-0.2,0.5-0.5S36.3,17.5,36,17.5z"/>
		<path d="M36,23.5H14c-0.3,0-0.5,0.2-0.5,0.5s0.2,0.5,0.5,0.5h22c0.3,0,0.5-0.2,0.5-0.5S36.3,23.5,36,23.5z"/>
		<path d="M36,29.5H14c-0.3,0-0.5,0.2-0.5,0.5s0.2,0.5,0.5,0.5h22c0.3,0,0.5-0.2,0.5-0.5S36.3,29.5,36,29.5z"/>
		<path d="M36,35.5H14c-0.3,0-0.5,0.2-0.5,0.5s0.2,0.5,0.5,0.5h22c0.3,0,0.5-0.2,0.5-0.5S36.3,35.5,36,35.5z"/>
		<path d="M36,41.5H14c-0.3,0-0.5,0.2-0.5,0.5s0.2,0.5,0.5,0.5h22c0.3,0,0.5-0.2,0.5-0.5S36.3,41.5,36,41.5z"/>
		<path d="M36,47.5H14c-0.3,0-0.5,0.2-0.5,0.5s0.2,0.5,0.5,0.5h22c0.3,0,0.5-0.2,0.5-0.5S36.3,47.5,36,47.5z"/>
		<path d="M56,15.5h-3.5V12c0-0.3-0.2-0.5-0.5-0.5h-4c-0.3,0-0.5,0.2-0.5,0.5v34v0.1v0.1l2,5.9V54c0,0.3,0.2,0.5,0.5,0.5
			s0.5-0.2,0.5-0.5v-1.9l2-5.9v-0.1c0,0,0,0,0-0.1V16.5h3V24c0,0.3,0.2,0.5,0.5,0.5s0.5-0.2,0.5-0.5v-8C56.5,15.7,56.3,15.5,56,15.5
			z M51.5,12.5v3h-3v-3H51.5z M50,50.4l-1.3-3.9h2.6L50,50.4z M51.5,45.5h-3v-29h3V45.5z"/>
	</g>
</g>
</svg>
