<?xml version="1.0" encoding="utf-8"?>
<!-- Generator: Adobe Illustrator 21.0.0, SVG Export Plug-In . SVG Version: 6.00 Build 0)  -->
<svg version="1.1" id="Layer_1" xmlns="http://www.w3.org/2000/svg" xmlns:xlink="http://www.w3.org/1999/xlink" x="0px" y="0px"
	 viewBox="0 0 64 64" style="enable-background:new 0 0 64 64;" xml:space="preserve">
<style type="text/css">
	.st0{fill:#353535;}
</style>
<path id="Bulb" class="st0" d="M39.9,43.3l-15.8,0L24,42.5c-0.3-1.8-1-3.4-2.2-4.8l-0.1-0.1c-6.8-5.7-7.7-15.8-2-22.5
	s15.8-7.7,22.5-2c6.8,5.7,7.7,15.8,2,22.5c-0.6,0.7-1.3,1.4-2,2c-1.2,1.3-2,3-2.2,4.8L39.9,43.3z M25.8,41.3l12.4,0
	c0.4-1.9,1.3-3.6,2.6-5.1l0.1-0.1c6-4.9,6.8-13.7,1.9-19.7c-4.9-6-13.7-6.8-19.7-1.9c-6,4.9-6.8,13.7-1.9,19.7
	c0.6,0.7,1.2,1.3,1.8,1.8c0.1,0.1,0.2,0.2,0.2,0.3C24.5,37.8,25.4,39.5,25.8,41.3L25.8,41.3z M39,48.8H25c-0.5,0-1-0.4-1-1
	s0.4-1,1-1c0,0,0,0,0.1,0h14c0.5,0,1,0.4,1,1S39.6,48.8,39,48.8C39,48.8,39,48.8,39,48.8z M36.6,54.6h-9.3c-0.5,0-1-0.4-1-1
	c0-0.5,0.4-1,1-1c0,0,0,0,0,0h9.3c0.5,0,1,0.4,1,1C37.6,54.2,37.2,54.6,36.6,54.6L36.6,54.6z"/>
</svg>
