<?xml version="1.0" encoding="utf-8"?>
<!-- Generator: Adobe Illustrator 21.0.0, SVG Export Plug-In . SVG Version: 6.00 Build 0)  -->
<svg version="1.1" id="Layer_1" xmlns="http://www.w3.org/2000/svg" xmlns:xlink="http://www.w3.org/1999/xlink" x="0px" y="0px"
	 viewBox="0 0 64 64" style="enable-background:new 0 0 64 64;" xml:space="preserve">
<style type="text/css">
	.st0{fill:#FFFFFF;}
</style>
<rect x="8" y="9.9" class="st0" width="48.1" height="34.2"/>
<g>
	<g>
		<path d="M56,9.5H8c-0.3,0-0.5,0.2-0.5,0.5v34c0,0.3,0.2,0.5,0.5,0.5h23.5v11H22c-0.3,0-0.5,0.2-0.5,0.5s0.2,0.5,0.5,0.5h20
			c0.3,0,0.5-0.2,0.5-0.5s-0.2-0.5-0.5-0.5h-9.5v-11H56c0.3,0,0.5-0.2,0.5-0.5V10C56.5,9.7,56.3,9.5,56,9.5z M55.5,43.5h-47v-33h47
			V43.5z"/>
		<path d="M27.6,30.4c0.1,0.1,0.2,0.1,0.4,0.1s0.3,0,0.4-0.1c0.2-0.2,0.2-0.5,0-0.7L24.7,26l3.6-3.6c0.2-0.2,0.2-0.5,0-0.7
			s-0.5-0.2-0.7,0l-4,4c-0.2,0.2-0.2,0.5,0,0.7L27.6,30.4z"/>
		<path d="M35.6,30.4c0.1,0.1,0.2,0.1,0.4,0.1s0.3,0,0.4-0.1l4-4c0.2-0.2,0.2-0.5,0-0.7l-4-4c-0.2-0.2-0.5-0.2-0.7,0s-0.2,0.5,0,0.7
			l3.6,3.6l-3.6,3.6C35.5,29.8,35.5,30.2,35.6,30.4z"/>
		<path d="M29.8,32.5c0.1,0,0.1,0,0.2,0c0.2,0,0.4-0.1,0.5-0.3l4-12c0.1-0.3-0.1-0.5-0.3-0.6c-0.3-0.1-0.5,0.1-0.6,0.3l-4,12
			C29.4,32.1,29.6,32.4,29.8,32.5z"/>
	</g>
</g>
</svg>
