<?xml version="1.0" encoding="utf-8"?>
<!-- Generator: Adobe Illustrator 21.0.0, SVG Export Plug-In . SVG Version: 6.00 Build 0)  -->
<svg version="1.1" id="Layer_1" xmlns="http://www.w3.org/2000/svg" xmlns:xlink="http://www.w3.org/1999/xlink" x="0px" y="0px"
	 viewBox="0 0 64 64" style="enable-background:new 0 0 64 64;" xml:space="preserve">
<style type="text/css">
	.st0{fill:#353535;}
</style>
<path id="Code" class="st0" d="M11.3,35.5c-0.3,0-0.5-0.1-0.7-0.3c-0.4-0.4-0.4-1,0-1.4c0,0,0,0,0,0l9.4-9.3c0.4-0.4,1-0.4,1.4,0
	c0.4,0.4,0.4,1,0,1.4c0,0,0,0,0,0l-9.4,9.3C11.9,35.4,11.6,35.5,11.3,35.5z M20.5,44.9c-0.3,0-0.5-0.1-0.7-0.3l-9.4-9.3
	c-0.4-0.4-0.4-1,0-1.4c0,0,0,0,0,0c0.4-0.4,1-0.4,1.4,0l9.4,9.3c0.4,0.4,0.4,1,0,1.4c0,0,0,0,0,0C21,44.8,20.7,44.9,20.5,44.9
	L20.5,44.9z M43.3,44.8c-0.3,0-0.5-0.1-0.7-0.3c-0.4-0.4-0.4-1,0-1.4c0,0,0,0,0,0l9.4-9.3c0.4-0.4,1-0.4,1.4,0c0.4,0.4,0.4,1,0,1.4
	c0,0,0,0,0,0L44,44.5C43.8,44.7,43.6,44.8,43.3,44.8L43.3,44.8z M52.9,35.3c-0.3,0-0.5-0.1-0.7-0.3l-9.4-9.3c-0.4-0.4-0.4-1,0-1.4
	c0,0,0,0,0,0c0.4-0.4,1-0.4,1.4,0l9.4,9.3c0.4,0.4,0.4,1,0,1.4c0,0,0,0,0,0C53.4,35.2,53.2,35.3,52.9,35.3L52.9,35.3z M27.5,44.8
	c-0.1,0-0.3,0-0.4-0.1c-0.5-0.2-0.7-0.8-0.5-1.3c0,0,0,0,0,0l11-23.7c0.2-0.5,0.8-0.7,1.3-0.5c0.5,0.2,0.7,0.8,0.5,1.3c0,0,0,0,0,0
	l-11,23.7C28.2,44.5,27.9,44.8,27.5,44.8L27.5,44.8z"/>
</svg>
