<?xml version="1.0" encoding="utf-8"?>
<!-- Generator: Adobe Illustrator 21.0.0, SVG Export Plug-In . SVG Version: 6.00 Build 0)  -->
<svg version="1.1" id="Layer_1" xmlns="http://www.w3.org/2000/svg" xmlns:xlink="http://www.w3.org/1999/xlink" x="0px" y="0px"
	 viewBox="0 0 68.7 53.5" style="enable-background:new 0 0 68.7 53.5;" xml:space="preserve">
<style type="text/css">
	.st0{fill:#212121;}
</style>
<path class="st0" d="M65.9,37.2c-1,2.3-3.6,6.2-7.8,6.2c-3.6,0-5.3-1.3-5.3-5.9c0-10.1,6.8-23.7,7.8-32.9C61,1.6,55.1,0,51.6,0
	c-1.2,0-2.3,0-2.8,0.8c-7.2,9.7-11.4,21.3-16.3,31.3H32C32.2,25,34.3,15,35.1,8.6c0.4-2.9-4.8-4.1-8.2-4.1c-1.2,0-2.3,0-2.8,0.8
	c-4,6.7-8.5,16-13.4,26h-0.3c0.4-4.3,1.4-10.5,3.4-14.3c0.4-0.8-3.7-3.7-7.7-3.7c-2.9,0-6,17-6,25.9l0,0c0,0,0,0,0,0
	c0,0,0,0.1,0,0.1l0,0c0,7.3,2.9,11.6,8.6,11.6c2.7,0,4.4-1.4,4.4-1.4c-0.1-8.5,6-21.9,10-29.9h1.2c-0.9,7.1-1.4,15.6-1.3,23.1
	c0.1,6.9,1.2,10.7,6.9,10.7c2.7,0,4.4-1.4,4.4-1.4c-0.1-8.5,5.9-25.4,11.2-33.4h1.5c-1.3,4.6-3.9,14-3.9,17.9
	c0,7.3,2.4,13.8,11.2,13.8c9,0,14.5-6.9,14.5-10.8C68.7,37.4,65.9,37.2,65.9,37.2z"/>
</svg>
