<?xml version="1.0" encoding="utf-8"?>
<!-- Generator: Adobe Illustrator 21.1.0, SVG Export Plug-In . SVG Version: 6.00 Build 0)  -->
<svg version="1.1" id="Layer_1" xmlns="http://www.w3.org/2000/svg" xmlns:xlink="http://www.w3.org/1999/xlink" x="0px" y="0px"
	 viewBox="0 0 59 46" style="enable-background:new 0 0 59 46;" xml:space="preserve">
<style type="text/css">
	.st0{fill:#222222;}
</style>
<path class="st0" d="M56.6,32c-0.9,2-3.1,5.3-6.7,5.3c-3.1,0-4.5-1.1-4.5-5.1c0-8.7,5.8-20.4,6.7-28.3C52.4,1.4,47.3,0,44.3,0
	c-1,0-2,0-2.4,0.7c-6.2,8.4-9.8,18.3-14,26.9h-0.4c0.2-6.1,2-14.7,2.6-20.2C30.4,4.9,26,3.9,23,3.9c-1,0-2,0-2.4,0.7
	c-3.4,5.7-7.3,13.7-11.5,22.3H8.9c0.3-3.7,1.2-9.1,2.9-12.3c0.3-0.7-3.2-3.2-6.6-3.2C2.6,11.4,0,26,0,33.7l0,0c0,0,0,0,0,0
	c0,0,0,0.1,0,0.1l0,0c0,6.3,2.5,10,7.4,10c2.3,0,3.7-1.2,3.7-1.2c-0.1-7.3,5.2-18.9,8.6-25.7h1C20,23,19.5,30.3,19.6,36.8
	c0.1,5.9,1,9.2,6,9.2c2.3,0,3.7-1.2,3.7-1.2c-0.1-7.3,5.1-21.8,9.6-28.7h1.3c-1.1,4-3.3,12-3.3,15.4c0,6.3,2.1,11.9,9.6,11.9
	c7.7,0,12.5-6,12.5-9.3C59,32.1,56.6,32,56.6,32z"/>
</svg>
