<?xml version="1.0" encoding="utf-8"?>
<!-- Generator: Adobe Illustrator 21.0.0, SVG Export Plug-In . SVG Version: 6.00 Build 0)  -->
<svg version="1.1" id="Type" xmlns="http://www.w3.org/2000/svg" xmlns:xlink="http://www.w3.org/1999/xlink" x="0px" y="0px"
	 viewBox="0 0 558.6 100.6" style="enable-background:new 0 0 558.6 100.6;" xml:space="preserve">
<g style="opacity: 0.05;">
	<path d="M82.6,94.1c1.2,1.3,2.5,1.9,4,2l-0.5,2.5c-4.8-0.2-11.8-0.4-20.9-0.4c-9.6,0-16.7,0.1-21.1,0.4l0.5-2.5
		c2.7-0.1,4.7-0.4,6.2-0.9c1.5-0.5,2.6-1.4,3.4-2.6c0.7-1.2,1.1-3,1.1-5.3c0-0.7,0-1.2-0.1-1.6l-1.1-20.3H29.8l-12,17
		c-1.9,2.8-2.9,5.2-2.9,7.1c0,3.9,3.8,6.1,11.4,6.7l-0.5,2.5c-8.5-0.2-14.4-0.4-17.6-0.4c-2.8,0-5.5,0.1-8.1,0.4l0.5-2.5
		c1.6-0.4,3.1-1.2,4.5-2.2c1.4-1,2.9-2.5,4.5-4.4c1.6-1.9,3.6-4.6,6.1-8.1l50.6-71.1c1.3,0.2,2.9,0.2,4.8,0.2c1.9,0,3.4-0.1,4.5-0.2
		l5,78C80.7,90.9,81.4,92.8,82.6,94.1z M52.5,33.2L31.5,62.8H54L52.5,33.2z"/>
	<path d="M135.3,35.5c2.7-2,5.8-3,9.2-3c5.7,0,9.9,1.7,12.7,5.2c2.8,3.5,4.2,8.5,4.2,15c0,6.8-1.6,14-4.9,21.4s-8,13.7-14,18.7
		s-13.1,7.5-21.1,7.5c-3.9,0-7.2-0.9-9.7-2.7c-1.7-0.4-3.3-0.7-5-0.7c-4.1,0-9.4,1.2-15.8,3.6L89,99.7c0.9-1.7,1.9-4.2,2.8-7.3
		l22.8-76.5c0.4-1.5,0.6-2.6,0.6-3.5c0-1.7-0.6-2.9-1.9-3.6c-1.3-0.7-3.5-1.1-6.5-1.1l0.9-2.6c6.5,0,12.4-0.5,17.7-1.3
		s10.4-2.1,15.5-3.8l-13.3,44.9C130,40.6,132.6,37.4,135.3,35.5z M115.9,96.2c3.6,0,7.1-2.6,10.6-7.8c3.5-5.2,6.4-11.6,8.6-19.2
		s3.4-14.8,3.4-21.4c0-2.7-0.2-4.6-0.7-5.5c-0.5-1-1.3-1.5-2.3-1.5c-1.5,0-3.2,1-4.9,3.1s-3.4,4.9-5.1,8.4l-12.8,43.4
		C113.7,96,114.8,96.2,115.9,96.2z"/>
	<path d="M168.4,57.9c3.2-7.2,8.1-13.3,14.6-18.1c6.5-4.9,14.4-7.3,23.7-7.3c7.2,0,12.7,1.8,16.4,5.4c3.8,3.6,5.7,8.9,5.7,15.7
		c0,7-1.6,14.1-4.8,21.3c-3.2,7.2-8.1,13.3-14.6,18.1c-6.5,4.9-14.4,7.3-23.7,7.3c-7.2,0-12.7-1.8-16.4-5.4
		c-3.8-3.6-5.7-8.8-5.7-15.6C163.5,72.2,165.1,65.1,168.4,57.9z M197.3,44.3c-3.5,6.2-6.6,13.7-9.2,22.5c-2.6,8.8-3.9,16.8-3.9,24.1
		c0,2.5,0.2,4.3,0.6,5.4c0.4,1.1,1,1.6,1.8,1.6c2.2,0,5.1-3,8.6-9c3.5-6,6.6-13.3,9.2-22c2.6-8.7,3.9-16.9,3.9-24.7
		c0-2.9-0.2-4.8-0.6-5.8c-0.4-1-0.9-1.5-1.5-1.5C203.8,34.9,200.8,38,197.3,44.3z"/>
	<path d="M302.9,77.9l-3.5,9.7c-1.6,4.4-3.9,7.6-7,9.7c-3.1,2.1-6.7,3.1-10.7,3.1c-5.5,0-9.2-1.6-11.1-4.8c-1-1.7-1.5-3.7-1.5-6
		c0-2,0.3-4.2,1-6.5l2.8-10.7c-3.1,7.5-6.2,13.4-9.1,17.4s-5.9,6.8-8.9,8.4c-3,1.5-6.5,2.3-10.4,2.3c-3.8,0-6.6-0.9-8.6-2.6
		s-3-4.3-3-7.7c0-2.3,0.5-5.1,1.6-8.4l12-36.8c0.4-1.2,0.6-2.2,0.6-3c0-1.5-0.7-2.2-2.1-2.2c-2.4,0-4.6,2.6-6.5,7.8l-2.6,7h-2.4
		l3.1-9.1c3-8.5,8.9-12.8,17.7-12.8c4.2,0,7.4,1,9.7,2.9c2.3,2,3.4,4.9,3.4,8.7c0,2.9-0.6,6.1-1.8,9.7L255,85.9
		c-0.7,2.2-1,3.8-1,4.8c0,1.3,0.4,1.9,1.3,1.9c2,0,4.6-2.5,7.7-7.6c3.1-5,6.3-11.6,9.6-19.6c3.3-8.1,6.2-16.4,8.7-24.9l1.6-6.3
		c9.1-0.1,16.6-0.7,22.5-1.8L289.8,88c-0.5,1.7-0.8,2.9-0.8,3.6c0,1.1,0.6,1.6,1.9,1.6c1.3,0,2.5-0.6,3.6-1.8
		c1.1-1.2,2.2-3.2,3.3-6.1l2.8-7.6H302.9z"/>
	<path d="M328.7,90.4c0,1.9,0.9,2.8,2.6,2.8c1.6,0,3.3-0.9,4.9-2.7c1.7-1.8,3-4,4-6.8l1.9-5.3h2.4l-2.4,6.8
		c-1.6,4.8-4.1,8.5-7.5,11.1s-7.4,3.9-12.2,3.9c-4.6,0-8-1.2-10.3-3.6c-2.3-2.4-3.4-5.7-3.4-9.8c0-2.4,0.4-5.1,1.2-7.9l12-41.7
		h-11.4l0.6-2.5h11.5l5.4-18.8c8.8-0.1,16.3-0.7,22.6-1.8l-6.1,20.6H357l-0.4,2.5h-12.7L329.1,88C328.9,88.9,328.7,89.7,328.7,90.4z
		"/>
	<path d="M510,10.8l-0.6,2.5c-3,0.1-5.3,0.4-6.8,1c-1.5,0.5-2.6,1.5-3.5,2.9c-0.9,1.4-1.7,3.7-2.5,6.8l-16.3,61.5
		c-0.7,2.6-1,4.6-1,5.9c0,1.3,0.3,2.2,0.8,2.8c0.5,0.6,1.4,1.1,2.6,1.4c1.2,0.3,2.8,0.4,5,0.5l-0.5,2.5c-6.1-0.2-13.7-0.4-22.8-0.4
		c-10.2,0-17.6,0.1-22.3,0.4l0.5-2.5c3-0.1,5.3-0.4,6.8-1c1.5-0.5,2.6-1.5,3.5-2.9c0.9-1.4,1.7-3.7,2.5-6.8l18-66.8l-51.5,80.6H419
		l-11-72.4l-14.4,54.8c-0.6,2.2-0.9,4.2-0.9,5.9c0,5.5,3.7,8.4,11,8.6l-0.5,2.5c-2.9-0.2-7.9-0.4-14.8-0.4c-5.1,0-9,0.1-11.7,0.4
		l0.5-2.5c3.9-0.2,6.9-1.6,9-4.2c2.1-2.6,3.7-6.1,4.8-10.3l15.4-57.6c0.7-2.6,1-4.6,1-5.9c0-1.3-0.3-2.2-0.8-2.8
		c-0.5-0.6-1.4-1.1-2.6-1.4c-1.2-0.3-2.8-0.4-5-0.5l0.7-2.5c4.5,0.2,11.5,0.4,20.9,0.4c4.4,0,8.2-0.1,11.4-0.4l7.2,56.6l35.8-56.2
		h12.2C496.2,11.1,503.8,11,510,10.8z"/>
	<path d="M535.9,95.5c-5.4,3.2-11.6,4.8-18.6,4.8c-4,0-7.6-0.7-10.8-2c-3.2-1.4-5.8-3.3-7.8-6c-1.9-2.6-2.9-5.8-2.9-9.5
		c0-8.1,2.1-16.1,6.3-23.9c4.2-7.8,9.9-14.2,17.1-19.1c7.2-4.9,15.2-7.4,23.9-7.4c4.6,0,8.4,0.9,11.2,2.8c2.8,1.9,4.2,4.6,4.2,8.2
		c0,4.7-1.9,9.1-5.6,13c-3.8,4-8.6,7.3-14.5,10.1s-12.3,4.9-19,6.5c-0.3,2.2-0.4,4.3-0.4,6.4c0,4.5,0.9,7.6,2.6,9.4
		c1.7,1.7,4.3,2.6,7.7,2.6c2.1,0,4.7-0.7,8-2.1c3.2-1.4,6.4-3.6,9.4-6.5l1.9,1C545.5,88.4,541.3,92.4,535.9,95.5z M532.8,40.2
		c-2.9,3.6-5.5,8.2-7.9,13.7c-2.4,5.6-4.1,11.2-5,16.9c4.3-2.4,8.1-5.2,11.4-8.4c7.5-7.4,11.3-15.6,11.3-24.4c0-2.1-0.7-3.1-2-3.1
		C538.2,34.8,535.6,36.6,532.8,40.2z"/>
</g>
</svg>
