<?xml version="1.0" encoding="utf-8"?>
<!-- Generator: Adobe Illustrator 21.0.0, SVG Export Plug-In . SVG Version: 6.00 Build 0)  -->
<svg version="1.1" id="Layer_1" xmlns="http://www.w3.org/2000/svg" xmlns:xlink="http://www.w3.org/1999/xlink" x="0px" y="0px"
	 viewBox="0 0 415.7 274" style="enable-background:new 0 0 415.7 274;" xml:space="preserve">
<style type="text/css">
	.st0{fill:#292929;}
</style>
<path class="st0" d="M181.9,0C81.6,0,0,81.9,0,182.7c0,0.5,0.1,1,0.2,1.6c-0.1,1.6-0.2,3.3-0.2,4.9C0,235.9,37.9,274,84.4,274
	c46.6,0,84.4-38,84.4-84.8s-37.9-84.8-84.4-84.8c-16.1,0-31.2,4.6-44,12.4c24.8-53.5,78.9-90.7,141.4-90.7c7.2,0,13-5.8,13-13.1
	C194.9,5.8,189.1,0,181.9,0z"/>
<path class="st0" d="M402.7,0C302.4,0,220.8,81.9,220.8,182.7c0,0.5,0.1,1,0.2,1.5c-0.1,1.6-0.2,3.3-0.2,5
	c0,46.8,37.9,84.8,84.4,84.8c46.6,0,84.5-38,84.5-84.8s-37.9-84.8-84.5-84.8c-16.1,0-31.1,4.5-43.9,12.4
	c24.8-53.5,78.8-90.7,141.3-90.7c7.2,0,13-5.8,13-13.1C415.7,5.8,410,0,402.7,0z"/>
</svg>
