<?xml version="1.0" encoding="utf-8"?>
<!-- Generator: Adobe Illustrator 21.0.0, SVG Export Plug-In . SVG Version: 6.00 Build 0)  -->
<svg version="1.1" id="Layer_1" xmlns="http://www.w3.org/2000/svg" xmlns:xlink="http://www.w3.org/1999/xlink" x="0px" y="0px"
	 viewBox="0 0 64 64" style="enable-background:new 0 0 64 64;" xml:space="preserve">
<style type="text/css">
	.st0{fill:#FFFFFF;}
</style>
<rect x="18" y="6" class="st0" width="28" height="51.8"/>
<g>
	<g>
		<path d="M46,5.5H18c-0.3,0-0.5,0.2-0.5,0.5v52c0,0.3,0.2,0.5,0.5,0.5h28c0.3,0,0.5-0.2,0.5-0.5V6C46.5,5.7,46.3,5.5,46,5.5z
			 M18.5,10.5h27v39h-27V10.5z M45.5,6.5v3h-27v-3H45.5z M18.5,57.5v-7h27v7H18.5z"/>
		<path d="M34,53.5h-4c-0.3,0-0.5,0.2-0.5,0.5s0.2,0.5,0.5,0.5h4c0.3,0,0.5-0.2,0.5-0.5S34.3,53.5,34,53.5z"/>
		<path d="M30,13.5h-8c-0.3,0-0.5,0.2-0.5,0.5v8c0,0.3,0.2,0.5,0.5,0.5h8c0.3,0,0.5-0.2,0.5-0.5v-8C30.5,13.7,30.3,13.5,30,13.5z
			 M29.5,21.5h-7v-7h7V21.5z"/>
		<path d="M42,13.5h-8c-0.3,0-0.5,0.2-0.5,0.5v8c0,0.3,0.2,0.5,0.5,0.5h8c0.3,0,0.5-0.2,0.5-0.5v-8C42.5,13.7,42.3,13.5,42,13.5z
			 M41.5,21.5h-7v-7h7V21.5z"/>
		<path d="M30,25.5h-8c-0.3,0-0.5,0.2-0.5,0.5v8c0,0.3,0.2,0.5,0.5,0.5h8c0.3,0,0.5-0.2,0.5-0.5v-8C30.5,25.7,30.3,25.5,30,25.5z
			 M29.5,33.5h-7v-7h7V33.5z"/>
		<path d="M42,25.5h-8c-0.3,0-0.5,0.2-0.5,0.5v8c0,0.3,0.2,0.5,0.5,0.5h8c0.3,0,0.5-0.2,0.5-0.5v-8C42.5,25.7,42.3,25.5,42,25.5z
			 M41.5,33.5h-7v-7h7V33.5z"/>
	</g>
</g>
</svg>
