<?xml version="1.0" encoding="utf-8"?>
<!-- Generator: Adobe Illustrator 21.0.0, SVG Export Plug-In . SVG Version: 6.00 Build 0)  -->
<svg version="1.1" id="Layer_1" xmlns="http://www.w3.org/2000/svg" xmlns:xlink="http://www.w3.org/1999/xlink" x="0px" y="0px"
	 viewBox="0 0 64 64" style="enable-background:new 0 0 64 64;" xml:space="preserve">
<style type="text/css">
	.st0{fill:#353535;}
</style>
<path id="Phone_2" class="st0" d="M44.9,45H19.1v-2h25.7L44.9,45L44.9,45z M44.9,17.5H19.1v-2h25.7L44.9,17.5L44.9,17.5z M36.2,50.3
	h-8.4v-2h8.4V50.3z M36.9,55.5h-9.7c-5.3,0-9.6-4-9.6-9v-29c0-5,4.3-9,9.6-9h9.7c5.3,0,9.6,4,9.6,9v29
	C46.5,51.5,42.2,55.5,36.9,55.5z M27.1,10.5c-4.2,0-7.7,3.1-7.7,7v29c0,3.9,3.4,7,7.7,7h9.7c4.2,0,7.7-3.1,7.7-7v-29
	c0-3.9-3.4-7-7.7-7H27.1z"/>
</svg>
