<?xml version="1.0" encoding="utf-8"?>
<!-- Generator: Adobe Illustrator 21.0.0, SVG Export Plug-In . SVG Version: 6.00 Build 0)  -->
<svg version="1.1" id="Layer_1" xmlns="http://www.w3.org/2000/svg" xmlns:xlink="http://www.w3.org/1999/xlink" x="0px" y="0px"
	 viewBox="0 0 64 64" style="enable-background:new 0 0 64 64;" xml:space="preserve">
<style type="text/css">
	.st0{fill:#FFFFFF;}
</style>
<circle class="st0" cx="15" cy="15" r="4"/>
<circle class="st0" cx="49" cy="15" r="4"/>
<circle class="st0" cx="15" cy="49" r="4"/>
<circle class="st0" cx="49" cy="49" r="4"/>
<circle class="st0" cx="32" cy="31.9" r="10"/>
<g>
	<g>
		<path d="M33.7,31.9c0.5-0.5,0.8-1.1,0.8-1.8c0-1.4-1.1-2.5-2.5-2.5c-1.4,0-2.5,1.1-2.5,2.5c0,0.7,0.3,1.4,0.8,1.8
			c-1.6,0.7-2.8,2.3-2.8,4.2c0,0.3,0.2,0.5,0.5,0.5s0.5-0.2,0.5-0.5c0-1.9,1.6-3.5,3.5-3.5c1.9,0,3.5,1.6,3.5,3.5
			c0,0.3,0.2,0.5,0.5,0.5s0.5-0.2,0.5-0.5C36.5,34.2,35.3,32.6,33.7,31.9z M30.5,30.1c0-0.8,0.7-1.5,1.5-1.5s1.5,0.7,1.5,1.5
			s-0.7,1.5-1.5,1.5S30.5,30.9,30.5,30.1z"/>
		<path d="M49,44.6c-1,0-2,0.4-2.8,1l-6.4-6.4c1.7-1.9,2.7-4.3,2.7-7.1c0-2.7-1-5.2-2.7-7.1l6.4-6.4c0.8,0.6,1.8,1,2.8,1
			c1.2,0,2.3-0.5,3.2-1.3c0.9-0.9,1.3-2,1.3-3.2s-0.5-2.3-1.3-3.2s-2-1.3-3.2-1.3s-2.3,0.5-3.2,1.3c-0.9,0.9-1.3,2-1.3,3.2
			c0,1,0.4,2,1,2.8l-6.4,6.4c-1.9-1.7-4.3-2.7-7.1-2.7s-5.2,1-7.1,2.7l-6.4-6.4c0.6-0.8,1-1.8,1-2.8c0-1.2-0.5-2.3-1.3-3.2
			s-2-1.3-3.2-1.3s-2.3,0.5-3.2,1.3s-1.3,2-1.3,3.2s0.5,2.3,1.3,3.2s2,1.3,3.2,1.3c1,0,2-0.4,2.8-1l6.4,6.4c-1.7,1.9-2.7,4.3-2.7,7
			s1,5.2,2.7,7.1l-6.4,6.4c-0.8-0.6-1.8-1-2.8-1c-1.2,0-2.3,0.5-3.2,1.3s-1.3,2-1.3,3.2s0.5,2.3,1.3,3.2c0.9,0.9,2,1.3,3.2,1.3
			s2.3-0.5,3.2-1.3s1.3-2,1.3-3.2c0-1-0.4-2-1-2.8l6.4-6.4c1.9,1.7,4.3,2.7,7,2.7s5.2-1,7.1-2.7l6.4,6.4c-0.6,0.8-1,1.8-1,2.8
			c0,1.2,0.5,2.3,1.3,3.2s2,1.3,3.2,1.3s2.3-0.5,3.2-1.3s1.3-2,1.3-3.2s-0.5-2.3-1.3-3.2C51.3,45,50.2,44.6,49,44.6z M46.5,12.7
			c0.7-0.7,1.5-1,2.5-1s1.8,0.4,2.5,1s1,1.5,1,2.5s-0.4,1.8-1,2.5c-1.3,1.3-3.6,1.3-4.9,0c-0.7-0.7-1-1.5-1-2.5
			C45.5,14.2,45.8,13.3,46.5,12.7z M12.6,17.6c-0.7-0.7-1-1.5-1-2.5s0.4-1.8,1-2.5s1.5-1,2.5-1s1.8,0.4,2.5,1s1,1.5,1,2.5
			s-0.4,1.8-1,2.5C16.2,18.9,13.9,18.9,12.6,17.6z M17.5,51.5c-1.3,1.3-3.6,1.3-4.9,0c-0.7-0.7-1-1.5-1-2.5s0.4-1.8,1-2.5
			s1.5-1,2.5-1c0.9,0,1.8,0.4,2.5,1s1,1.5,1,2.5S18.2,50.9,17.5,51.5z M22.5,32.1c0-5.2,4.3-9.5,9.5-9.5s9.5,4.3,9.5,9.5
			s-4.3,9.5-9.5,9.5S22.5,37.3,22.5,32.1z M51.4,51.5c-1.3,1.3-3.6,1.3-4.9,0c-0.7-0.7-1-1.5-1-2.5s0.4-1.8,1-2.5s1.5-1,2.5-1
			s1.8,0.4,2.5,1s1,1.5,1,2.5S52.1,50.9,51.4,51.5z"/>
	</g>
</g>
</svg>
