<?xml version="1.0" encoding="utf-8"?>
<!-- Generator: Adobe Illustrator 21.0.0, SVG Export Plug-In . SVG Version: 6.00 Build 0)  -->
<svg version="1.1" id="Layer_1" xmlns="http://www.w3.org/2000/svg" xmlns:xlink="http://www.w3.org/1999/xlink" x="0px" y="0px"
	 viewBox="0 0 64 64" style="enable-background:new 0 0 64 64;" xml:space="preserve">
<style type="text/css">
	.st0{fill:#FFFFFF;}
</style>
<rect x="6.2" y="8.1" class="st0" width="51.7" height="47.9"/>
<g>
	<g>
		<path d="M58,7.5H6C5.7,7.5,5.5,7.7,5.5,8v48c0,0.3,0.2,0.5,0.5,0.5h52c0.3,0,0.5-0.2,0.5-0.5V8C58.5,7.7,58.3,7.5,58,7.5z
			 M57.5,8.5v7h-51v-7H57.5z M6.5,55.5v-39h51v39H6.5z"/>
		<path d="M10,12.5h2c0.3,0,0.5-0.2,0.5-0.5s-0.2-0.5-0.5-0.5h-2c-0.3,0-0.5,0.2-0.5,0.5S9.7,12.5,10,12.5z"/>
		<path d="M16,12.5h2c0.3,0,0.5-0.2,0.5-0.5s-0.2-0.5-0.5-0.5h-2c-0.3,0-0.5,0.2-0.5,0.5S15.7,12.5,16,12.5z"/>
		<path d="M22,12.5h2c0.3,0,0.5-0.2,0.5-0.5s-0.2-0.5-0.5-0.5h-2c-0.3,0-0.5,0.2-0.5,0.5S21.7,12.5,22,12.5z"/>
		<path d="M43.3,22.2L29.1,36.4c-0.5,0.5-0.7,1.1-0.7,1.8s0.3,1.3,0.7,1.8c0.5,0.5,1.1,0.7,1.8,0.7c0.7,0,1.3-0.3,1.8-0.7l14.1-14.1
			c0.5-0.5,0.7-1.1,0.7-1.8s-0.3-1.3-0.7-1.8C45.8,21.3,44.2,21.3,43.3,22.2z M46.1,25.1L31.9,39.2c-0.6,0.6-1.6,0.6-2.1,0
			c-0.3-0.3-0.4-0.7-0.4-1.1c0-0.4,0.2-0.8,0.4-1.1L44,22.9c0.3-0.3,0.7-0.4,1.1-0.4s0.8,0.2,1.1,0.4s0.4,0.7,0.4,1.1
			C46.5,24.4,46.4,24.8,46.1,25.1z"/>
		<path d="M24.6,39.9c-1.2,0-2.3,0.5-3.2,1.3c-0.9,0.9-0.9,2.4-0.9,3.9c0,1.2,0.1,2.5-0.6,3.2c-0.4,0.4-0.9,1-0.7,1.5
			c0.1,0.4,0.5,0.5,1.1,0.5c1.9,0,6.2-1.6,7.3-2.8c0.9-0.8,1.3-2,1.3-3.2s-0.5-2.3-1.3-3.2C26.9,40.4,25.8,39.9,24.6,39.9z
			 M27.1,46.9c-1,1-5,2.5-6.6,2.5h-0.1c0.1-0.1,0.2-0.2,0.3-0.4c0.9-0.9,0.9-2.4,0.9-3.9c0-1.2-0.1-2.5,0.6-3.2
			c1.3-1.3,3.6-1.3,4.9,0c0.7,0.7,1,1.5,1,2.5S27.7,46.2,27.1,46.9z"/>
	</g>
</g>
</svg>
