<?xml version="1.0" encoding="utf-8"?>
<!-- Generator: Adobe Illustrator 21.0.0, SVG Export Plug-In . SVG Version: 6.00 Build 0)  -->
<svg version="1.1" id="Layer_1" xmlns="http://www.w3.org/2000/svg" xmlns:xlink="http://www.w3.org/1999/xlink" x="0px" y="0px"
	 viewBox="0 0 64 64" style="enable-background:new 0 0 64 64;" xml:space="preserve">
<style type="text/css">
	.st0{fill:#353535;}
</style>
<path id="Computer" class="st0" d="M52,48.2H13c-2.7,0-5-2.5-5-5.6V16.6c0-3.1,2.2-5.6,5-5.6h39c2.7,0,5,2.5,5,5.6v25.9
	C57,45.7,54.8,48.2,52,48.2z M13,13c-1.6,0-3,1.6-3,3.6v25.9c0,2,1.3,3.6,3,3.6h39c1.6,0,3-1.6,3-3.6V16.6c0-2-1.3-3.6-3-3.6H13z
	 M33.5,52h-2v-4.8h2V52z M39.5,54h-14c-0.6,0-1-0.4-1.1-0.9c0-0.6,0.4-1,0.9-1.1c0.1,0,0.1,0,0.2,0h14c0.6,0,1,0.4,1.1,0.9
	c0,0.6-0.4,1-0.9,1.1C39.6,54,39.5,54,39.5,54L39.5,54z M56,42.7H9v-2h47L56,42.7L56,42.7z"/>
</svg>
